<svg width="24" height="24" viewBox="0 0 24 24" fill="none" xmlns="http://www.w3.org/2000/svg">
<rect width="24" height="24" rx="12" fill="#F5F5F7"/>
<path fill-rule="evenodd" clip-rule="evenodd" d="M14.4273 12.5131C15.3833 11.7822 16 10.6298 16 9.3335C16 7.12436 14.2091 5.3335 12 5.3335C9.79086 5.3335 8 7.12436 8 9.3335C8 10.6298 8.61667 11.7822 9.57267 12.5131C8.90236 12.8096 8.28567 13.2292 7.75736 13.7575C6.63214 14.8827 6 16.4089 6 18.0002C6 18.3684 6.29848 18.6668 6.66667 18.6668C7.03486 18.6668 7.33333 18.3684 7.33333 18.0002C7.33333 16.7625 7.825 15.5755 8.70017 14.7003C9.57534 13.8252 10.7623 13.3335 12 13.3335C13.2377 13.3335 14.4247 13.8252 15.2998 14.7003C16.175 15.5755 16.6667 16.7625 16.6667 18.0002C16.6667 18.3684 16.9651 18.6668 17.3333 18.6668C17.7015 18.6668 18 18.3684 18 18.0002C18 16.4089 17.3679 14.8827 16.2426 13.7575C15.7143 13.2292 15.0976 12.8096 14.4273 12.5131ZM9.33333 9.3335C9.33333 7.86074 10.5272 6.66683 12 6.66683C13.4728 6.66683 14.6667 7.86074 14.6667 9.3335C14.6667 10.8063 13.4728 12.0002 12 12.0002C10.5272 12.0002 9.33333 10.8063 9.33333 9.3335Z" fill="#3C3C43" fill-opacity="0.6"/>
</svg>
