<svg width="20" height="20" viewBox="0 0 20 20" xmlns="http://www.w3.org/2000/svg">
<path d="M14.1634 0.887396C12.8524 0.876004 11.5894 1.37998 10.6464 2.29077L10.6378 2.2992L9.20446 3.7242C8.87807 4.04869 8.87653 4.57632 9.20102 4.90271C9.52551 5.22909 10.0531 5.23063 10.3795 4.90614L11.8084 3.48562C12.4366 2.88093 13.2768 2.54642 14.1489 2.554C15.0229 2.56159 15.859 2.91216 16.477 3.53018C17.095 4.14821 17.4456 4.98425 17.4532 5.85824C17.4607 6.72995 17.1265 7.56985 16.5223 8.19799L14.0277 10.6926C13.6898 11.0306 13.283 11.2922 12.8352 11.4592C12.3874 11.6263 11.9088 11.6951 11.4321 11.6609C10.9553 11.6268 10.4915 11.4905 10.072 11.2613C9.65254 11.0321 9.28726 10.7154 9.00096 10.3327C8.72529 9.96415 8.20305 9.88886 7.83451 10.1645C7.46597 10.4402 7.39068 10.9624 7.66636 11.331C8.09581 11.9051 8.64371 12.3802 9.27291 12.7239C9.9021 13.0677 10.5979 13.2721 11.313 13.3233C12.0281 13.3745 12.7459 13.2714 13.4177 13.0208C14.0895 12.7702 14.6995 12.3781 15.2064 11.871L17.7062 9.3711L17.7164 9.36077C18.6272 8.41776 19.1312 7.15474 19.1198 5.84376C19.1084 4.53278 18.5825 3.27871 17.6555 2.35167C16.7285 1.42463 15.4744 0.898788 14.1634 0.887396Z"/>
<path d="M8.68781 6.6737C7.97267 6.62249 7.25488 6.72567 6.58312 6.97626C5.91141 7.22682 5.30143 7.61891 4.79457 8.12593L2.29457 10.6259L2.28442 10.6363C1.37363 11.5793 0.869656 12.8423 0.881048 14.1533C0.89244 15.4642 1.41829 16.7183 2.34533 17.6454C3.27237 18.5724 4.52643 19.0982 5.83741 19.1096C7.1484 19.121 8.41141 18.6171 9.35442 17.7063L9.36475 17.6961L10.7897 16.2711C11.1152 15.9457 11.1152 15.418 10.7897 15.0926C10.4643 14.7672 9.93667 14.7672 9.61124 15.0926L8.19163 16.5122C7.56349 17.1164 6.7236 17.4506 5.85189 17.443C4.97791 17.4354 4.14186 17.0849 3.52384 16.4668C2.90581 15.8488 2.55525 15.0128 2.54765 14.1388C2.54008 13.2671 2.87429 12.4272 3.47849 11.799L5.97308 9.30444C6.31101 8.9664 6.71779 8.70487 7.16562 8.53781C7.61346 8.37076 8.09199 8.30197 8.56875 8.33611C9.04552 8.37026 9.50936 8.50654 9.92882 8.73571C10.3483 8.96488 10.7136 9.28158 10.9999 9.66433C11.2755 10.0329 11.7978 10.1082 12.1663 9.83249C12.5349 9.55682 12.6101 9.03458 12.3345 8.66604C11.905 8.09191 11.3571 7.61685 10.7279 7.2731C10.0987 6.92934 9.40296 6.72492 8.68781 6.6737Z"/>
</svg>