<svg width="20" height="20" viewBox="0 0 20 20" xmlns="http://www.w3.org/2000/svg">
<path d="M20 10.0585C20 4.49854 15.52 -0.00146484 10 -0.00146484C4.48 -0.00146484 0 4.49854 0 10.0585C0 15.0785 3.66 19.2485 8.44 19.9985V12.9685H5.9V10.0685H8.44V7.82854C8.44 5.30854 9.94 3.91854 12.21 3.91854C13.31 3.91854 14.45 4.11854 14.45 4.11854V6.59854H13.2C11.96 6.59854 11.57 7.37854 11.57 8.16854V10.0685H14.35L13.9 12.9685H11.57V19.9985C13.9279 19.6155 16.072 18.4042 17.6171 16.5823C19.1622 14.7605 20.0071 12.4474 20 10.0585Z"/>
</svg>