<svg width="20" height="20" viewBox="0 0 20 20" xmlns="http://www.w3.org/2000/svg">
<path fill-rule="evenodd" clip-rule="evenodd" d="M8.2283 3.57299C7.54494 3.76141 6.89229 4.05863 6.29653 4.45671C5.2002 5.18925 4.34572 6.23044 3.84113 7.44861C3.33655 8.66679 3.20453 10.0072 3.46176 11.3004C3.719 12.5936 4.35393 13.7815 5.28628 14.7139C6.21863 15.6462 7.40652 16.2812 8.69973 16.5384C9.99293 16.7956 11.3334 16.6636 12.5516 16.159C13.7697 15.6545 14.8109 14.8 15.5435 13.7036C15.9415 13.1079 16.2388 12.4552 16.4272 11.7719C15.6005 12.1726 14.6864 12.3865 13.7503 12.3865C12.1228 12.3865 10.5619 11.7399 9.41107 10.5891C8.26023 9.43825 7.6137 7.87737 7.6137 6.24984C7.6137 5.31372 7.82758 4.39966 8.2283 3.57299ZM5.37058 3.07092C6.74099 2.15525 8.35215 1.6665 10.0003 1.6665C10.3374 1.6665 10.6412 1.86954 10.7702 2.18093C10.8992 2.49233 10.8279 2.85076 10.5896 3.08909C9.7513 3.92737 9.28036 5.06433 9.28036 6.24984C9.28036 7.43535 9.7513 8.5723 10.5896 9.41058C11.4279 10.2489 12.5648 10.7198 13.7503 10.7198C14.9358 10.7198 16.0728 10.2489 16.9111 9.41058C17.1494 9.17225 17.5078 9.10095 17.8192 9.22994C18.1306 9.35892 18.3337 9.66279 18.3337 9.99984C18.3337 11.648 17.8449 13.2592 16.9292 14.6296C16.0136 16 14.7121 17.0681 13.1894 17.6988C11.6666 18.3296 9.99109 18.4946 8.37458 18.173C6.75807 17.8515 5.27321 17.0578 4.10777 15.8924C2.94234 14.727 2.14866 13.2421 1.82712 11.6256C1.50558 10.0091 1.6706 8.33353 2.30133 6.81081C2.93206 5.28809 4.00017 3.9866 5.37058 3.07092Z"/>
</svg>