<svg width="16" height="20" viewBox="0 0 16 20" xmlns="http://www.w3.org/2000/svg">
<path d="M8.31891 0.896698C8.41723 0.937365 8.50934 0.997657 8.58926 1.07757L11.9226 4.41091C12.248 4.73634 12.248 5.26398 11.9226 5.58942C11.5972 5.91486 11.0695 5.91486 10.7441 5.58942L8.83333 3.67867V12.5002C8.83333 12.9604 8.46024 13.3335 8 13.3335C7.53976 13.3335 7.16667 12.9604 7.16667 12.5002V3.67867L5.25592 5.58942C4.93049 5.91486 4.40285 5.91486 4.07741 5.58942C3.75197 5.26398 3.75197 4.73634 4.07741 4.41091L7.41074 1.07757C7.57346 0.914855 7.78673 0.833496 8 0.833496C8.11296 0.833496 8.22068 0.855973 8.31891 0.896698Z"/>
<path d="M1.33333 9.16683C1.79357 9.16683 2.16667 9.53993 2.16667 10.0002V16.6668C2.16667 16.8878 2.25446 17.0998 2.41074 17.2561C2.56702 17.4124 2.77899 17.5002 3 17.5002H13C13.221 17.5002 13.433 17.4124 13.5893 17.2561C13.7455 17.0998 13.8333 16.8878 13.8333 16.6668V10.0002C13.8333 9.53993 14.2064 9.16683 14.6667 9.16683C15.1269 9.16683 15.5 9.53993 15.5 10.0002V16.6668C15.5 17.3299 15.2366 17.9658 14.7678 18.4346C14.2989 18.9034 13.663 19.1668 13 19.1668H3C2.33696 19.1668 1.70107 18.9034 1.23223 18.4346C0.763392 17.9658 0.5 17.3299 0.5 16.6668V10.0002C0.5 9.53993 0.873096 9.16683 1.33333 9.16683Z"/>
</svg>