<svg width="18" height="16" viewBox="0 0 18 16" xmlns="http://www.w3.org/2000/svg">
<path d="M16.1003 4.05831C16.1091 4.22816 16.1124 4.39824 16.1103 4.5683C16.1103 9.8083 12.4303 15.8383 5.69031 15.8383C3.69031 15.8383 1.74031 15.2283 0.0703125 14.0583C1.03834 14.1839 2.022 14.1026 2.9563 13.8199C3.89061 13.5372 4.75429 13.0595 5.49031 12.4183C4.70232 12.3818 3.94635 12.0957 3.3316 11.6013C2.71686 11.107 2.27516 10.4301 2.07031 9.66831C2.62031 9.78831 3.18031 9.76831 3.72031 9.59831C2.86288 9.38085 2.10484 8.87837 1.57061 8.17334C1.03638 7.4683 0.757704 6.60259 0.780313 5.71831V5.6683C1.29031 5.96831 1.86031 6.1483 2.45031 6.1683C1.65812 5.56701 1.10757 4.70181 0.898431 3.7295C0.689294 2.7572 0.835416 1.74214 1.31031 0.868305C2.1894 2.0717 3.32223 3.0672 4.62864 3.78434C5.93504 4.50147 7.38309 4.92273 8.87031 5.01831C8.57031 3.63831 8.97031 2.19831 9.93031 1.2283C10.2685 0.875066 10.6773 0.59706 11.1301 0.412411C11.5829 0.227763 12.0695 0.140618 12.5583 0.156658C13.047 0.172698 13.5269 0.291562 13.9666 0.505502C14.4063 0.719442 14.796 1.02365 15.1103 1.39831C15.9303 1.22831 16.7103 0.898305 17.4403 0.438305C17.1703 1.35831 16.5903 2.1383 15.8303 2.6383C16.5503 2.53831 17.2603 2.33831 17.9303 2.00831C17.4464 2.79455 16.8268 3.48866 16.1003 4.05831Z"/>
</svg>