<svg width="20" height="20" viewBox="0 0 20 20" xmlns="http://www.w3.org/2000/svg"><path d="M14.163.887a5 5 0 00-3.517 1.404l-.008.008-1.434 1.425a.833.833 0 001.175 1.182l1.43-1.42a3.333 3.333 0 014.713 4.712l-2.494 2.495A3.334 3.334 0 019 10.333a.833.833 0 10-1.335.998 5 5 0 007.54.54l2.5-2.5.01-.01A5 5 0 0014.163.887z"/><path d="M8.688 6.674a5 5 0 00-3.893 1.452l-2.5 2.5-.01.01a5 5 0 007.07 7.07l.01-.01 1.425-1.425a.833.833 0 10-1.179-1.178l-1.42 1.42a3.333 3.333 0 01-4.713-4.714l2.495-2.495a3.334 3.334 0 015.027.36.833.833 0 101.335-.998 5 5 0 00-3.647-1.992z"/></svg>