<?xml version="1.0" encoding="utf-8"?><svg viewBox="0 0 40 40" xmlns="http://www.w3.org/2000/svg" xmlns:xlink="http://www.w3.org/1999/xlink"><style>:root>svg{display:none}:root>svg:target{display:block}</style><svg fill="none" viewBox="0 0 24 24" id="avatar" xmlns="http://www.w3.org/2000/svg"><rect width="24" height="24" rx="12" fill="#F5F5F7"/><path fill-rule="evenodd" clip-rule="evenodd" d="M14.427 12.513a4 4 0 10-4.855 0A5.998 5.998 0 006 18a.667.667 0 001.333 0 4.667 4.667 0 019.334 0A.667.667 0 1018 18a6 6 0 00-3.573-5.487zm-5.094-3.18a2.667 2.667 0 115.334 0 2.667 2.667 0 01-5.334 0z" fill="#3C3C43" fill-opacity=".6"/></svg><svg viewBox="0 0 40 40" id="logo" xmlns="http://www.w3.org/2000/svg"><path d="M18.689.49c-.846.053-1.74.171-2.704.365-.82.167-2.538.683-3.224.978l-.471.2c-.44.182-1.842.908-2.399 1.247-.316.193-.921.602-1.339.908-3.271 2.403-5.724 5.764-6.977 9.549C.88 15.85.595 17.65.59 19.94c0 1.42.027 1.785.246 3.177.434 2.785 1.537 5.533 3.17 7.904 1.29 1.87 3.085 3.677 4.937 4.956 2.506 1.737 5.43 2.888 8.3 3.264.252.032.637.086.857.118.535.075 3.18.075 3.754-.005.246-.032.642-.08.878-.113 1.542-.204 3.384-.72 4.873-1.355.31-.134 1.74-.85 1.98-.99 2.335-1.386 4.28-3.08 5.768-5.042.155-.21.294-.387.31-.403.07-.07.713-1.049 1.002-1.533.525-.876 1.172-2.22 1.467-3.032.61-1.693.905-2.898 1.13-4.602.085-.694.107-1.15.107-2.339 0-1.796-.096-2.693-.493-4.516-.364-1.683-1.29-3.962-2.249-5.527-.134-.215-.262-.435-.294-.484-.3-.516-1.253-1.774-1.831-2.424a19.75 19.75 0 00-6.657-4.887 30.967 30.967 0 00-2.329-.866A19.7 19.7 0 0018.69.489zm2.86 1.392c1.327.15 2.045.274 3.03.532 1.371.36 3.036 1.032 4.15 1.672.118.07.284.161.364.204.316.162 1.639 1.076 2.147 1.484a18.42 18.42 0 014.74 5.785c1.392 2.694 2.04 5.36 2.04 8.371 0 1.21-.08 2.102-.316 3.484a21.11 21.11 0 01-.584 2.231c-1.001 2.893-2.447 5.21-4.52 7.231-.39.382-.787.758-.872.834a21.254 21.254 0 01-2.892 2.032c-.637.36-1.89.957-2.276 1.086-.075.027-.374.134-.669.242-.482.172-.755.258-1.606.484-.391.102-1.35.28-2.089.387-.915.129-3.534.129-4.444-.006-3.058-.44-5.494-1.365-7.925-3.01a18.46 18.46 0 01-4.643-4.602c-1.67-2.425-2.72-5.135-3.095-7.984-.583-4.468.471-8.914 2.988-12.608.76-1.113 1.125-1.554 2.206-2.64a17.21 17.21 0 014.793-3.435c.969-.473 2.195-.957 2.865-1.13 1.05-.268 1.365-.338 2.061-.45a26.36 26.36 0 011.259-.184c.642-.07 2.714-.075 3.287-.01z"/><path d="M11.514 13.796c-.83.14-1.607.387-2.212.688l-.44.22-.015.844c-.016.963-.016.957.375.694 1.59-1.07 3.877-1.264 4.717-.393.107.108.257.345.338.517.128.285.144.381.144.913 0 .538-.016.64-.166 1.027-.348.887-.712 1.307-3.304 3.796-.348.339-.915.882-1.258 1.21-.337.328-.728.704-.868.838l-.257.242v.887c0 .683.016.904.075.952.049.043 1.093.054 3.813.048l3.743-.016.016-.72c.01-.543-.005-.731-.054-.769-.037-.021-1.317-.043-2.838-.043-1.553 0-2.773-.021-2.773-.048s.139-.172.31-.328c.482-.447 2.608-2.5 3.176-3.07.974-.979 1.649-1.957 1.911-2.769a4.111 4.111 0 00.177-1.801c-.145-1.032-.498-1.672-1.237-2.242-.187-.145-.734-.409-1.017-.49-.134-.037-.311-.096-.402-.123-.166-.054-1.719-.107-1.954-.064zM19.036 14.796c-.016.037-.032.564-.037 1.172l-.016 1.102-.884.027-.883.027v1.344l.883.027.884.026.027 3.011.026 3.011.145.366c.155.414.364.736.6.935.53.452 1.617.645 2.747.5.733-.097.658-.005.658-.812 0-.64-.01-.704-.09-.672-.177.07-1.173.14-1.462.108-.52-.06-.766-.215-.954-.613-.08-.167-.09-.473-.09-3.01v-2.823l1.204-.017c.878-.01 1.21-.032 1.242-.08.054-.086.054-1.172 0-1.258-.032-.049-.364-.07-1.242-.08l-1.205-.017-.026-1.156-.027-1.156-.74-.016c-.556-.01-.744 0-.76.054zM26.801 16.946c-.728.08-1.804.393-1.911.549-.049.07-.06 1.274-.011 1.392.021.065.07.06.278-.048.59-.307 1.714-.56 2.437-.56 1.258.011 1.917.576 2.04 1.759.032.344 0 .37-.557.414-2.554.215-3.614.559-4.439 1.457-1.028 1.118-.776 3.182.487 4.048.61.42 1.494.597 2.346.473.856-.123 1.462-.43 2.002-1 .193-.204.273-.258.306-.204.026.038.048.296.048.57v.5l.685-.016.68-.017V19.49l-.123-.403c-.246-.785-.578-1.253-1.167-1.65-.691-.463-1.805-.64-3.1-.49zm2.844 5.409c-.07 1.118-.386 1.806-1.034 2.285-.52.381-1.462.532-2.061.328-.573-.194-.9-.704-.9-1.398 0-.812.52-1.301 1.687-1.575.385-.092 2.152-.27 2.27-.226.06.016.065.129.038.586z"/></svg><svg viewBox="0 0 20 20" id="moon" xmlns="http://www.w3.org/2000/svg"><path fill-rule="evenodd" clip-rule="evenodd" d="M8.228 3.573a6.666 6.666 0 108.2 8.199 6.136 6.136 0 01-8.2-8.199zm-2.857-.502A8.333 8.333 0 0110 1.666a.833.833 0 01.589 1.423 4.47 4.47 0 106.321 6.322.833.833 0 011.423.589A8.333 8.333 0 115.37 3.07z"/></svg><svg viewBox="0 0 16 16" id="str" xmlns="http://www.w3.org/2000/svg"><path fill-rule="evenodd" clip-rule="evenodd" d="M5.528 3.529c.26-.26.683-.26.943 0l4 4c.26.26.26.682 0 .943l-4 4a.667.667 0 01-.943-.943L9.057 8 5.528 4.472a.667.667 0 010-.943z"/></svg><svg viewBox="0 0 20 20" id="sun" xmlns="http://www.w3.org/2000/svg"><path d="M10 .833c.46 0 .834.374.834.834v1.666a.833.833 0 01-1.667 0V1.667c0-.46.373-.834.834-.834z"/><path fill-rule="evenodd" clip-rule="evenodd" d="M5.834 10a4.167 4.167 0 118.333 0 4.167 4.167 0 01-8.333 0zm4.167-2.5a2.5 2.5 0 100 5 2.5 2.5 0 000-5z"/><path d="M10.834 16.667a.833.833 0 00-1.667 0v1.666a.833.833 0 001.667 0v-1.666zM3.52 3.52a.833.833 0 011.178 0l1.175 1.174a.833.833 0 01-1.178 1.179L3.52 4.698a.833.833 0 010-1.179zM15.307 14.127a.833.833 0 00-1.179 1.179l1.175 1.175a.833.833 0 001.179-1.179l-1.175-1.175zM.834 10c0-.46.373-.833.833-.833h1.667a.833.833 0 010 1.667H1.667A.833.833 0 01.834 10zM16.667 9.167a.833.833 0 000 1.667h1.667a.833.833 0 000-1.667h-1.667zM5.873 14.127a.833.833 0 010 1.179l-1.175 1.175a.833.833 0 01-1.178-1.179l1.175-1.175a.833.833 0 011.178 0zM16.482 4.698a.833.833 0 00-1.179-1.179l-1.175 1.175a.833.833 0 001.179 1.179l1.175-1.175z"/></svg><svg viewBox="0 0 12 11" id="tg" xmlns="http://www.w3.org/2000/svg"><path d="M11.8.562L9.997 9.976s-.252.652-.945.34l-4.16-3.304-.02-.01c.562-.523 4.92-4.58 5.11-4.764.295-.285.112-.455-.23-.24L3.314 6.233.831 5.367s-.39-.144-.428-.457c-.039-.314.44-.483.44-.483L10.969.314s.832-.379.832.248z"/></svg><svg viewBox="0 0 16 16" id="up" xmlns="http://www.w3.org/2000/svg"><path d="M7.617.076a.997.997 0 00-.322.215l-.002.002-7 7a1 1 0 001.414 1.414L7 3.414V15a1 1 0 102 0V3.414l5.293 5.293a1 1 0 101.414-1.414l-7-7-.002-.002A.997.997 0 007.617.076z"/></svg><svg viewBox="0 0 14 10" id="yt" xmlns="http://www.w3.org/2000/svg"><path fill-rule="evenodd" clip-rule="evenodd" d="M1.758 9.234a1.542 1.542 0 01-.626-.361 1.492 1.492 0 01-.385-.602c-.44-1.179-.571-6.099.277-7.07.282-.316.68-.51 1.109-.542C4.409.421 11.439.452 12.246.74c.227.072.435.193.607.354.172.162.305.36.388.578.482 1.218.498 5.644-.065 6.815-.15.304-.4.551-.71.7-.848.414-9.583.406-10.708.048zM5.37 6.925l4.078-2.07L5.37 2.77v4.156z"/></svg></svg>