<svg width="20" height="20" viewBox="0 0 20 20" xmlns="http://www.w3.org/2000/svg"><path d="M10 .833c.46 0 .834.374.834.834v1.666a.833.833 0 01-1.667 0V1.667c0-.46.373-.834.834-.834z"/><path fill-rule="evenodd" clip-rule="evenodd" d="M5.834 10a4.167 4.167 0 118.333 0 4.167 4.167 0 01-8.333 0zm4.167-2.5a2.5 2.5 0 100 5 2.5 2.5 0 000-5z"/><path d="M10.834 16.667a.833.833 0 00-1.667 0v1.666a.833.833 0 001.667 0v-1.666zM3.52 3.52a.833.833 0 011.178 0l1.175 1.174a.833.833 0 01-1.178 1.179L3.52 4.698a.833.833 0 010-1.179zm11.787 10.607a.833.833 0 00-1.179 1.179l1.175 1.175a.833.833 0 001.179-1.179l-1.175-1.175zM.834 10c0-.46.373-.833.833-.833h1.667a.833.833 0 010 1.667H1.667A.833.833 0 01.834 10zm15.833-.833a.833.833 0 000 1.667h1.667a.833.833 0 000-1.667h-1.667zm-10.794 4.96a.833.833 0 010 1.179l-1.175 1.175a.833.833 0 01-1.178-1.179l1.175-1.175a.833.833 0 011.178 0zm10.609-9.429a.833.833 0 00-1.179-1.179l-1.175 1.175a.833.833 0 001.179 1.179l1.175-1.175z"/></svg>