<svg width="16" height="16" viewBox="0 0 16 16" xmlns="http://www.w3.org/2000/svg">
<path d="M7.61717 0.0758994C7.50014 0.124325 7.39045 0.195923 7.2951 0.290693C7.29427 0.291514 7.29345 0.292337 7.29262 0.293162L0.292893 7.29289C-0.0976311 7.68342 -0.0976311 8.31658 0.292893 8.70711C0.683417 9.09763 1.31658 9.09763 1.70711 8.70711L7 3.41421V15C7 15.5523 7.44772 16 8 16C8.55229 16 9 15.5523 9 15V3.41421L14.2929 8.70711C14.6834 9.09763 15.3166 9.09763 15.7071 8.70711C16.0976 8.31658 16.0976 7.68342 15.7071 7.29289L8.70738 0.293162C8.70655 0.292337 8.70573 0.291514 8.7049 0.290693C8.52411 0.111022 8.27502 0 8 0C7.86439 0 7.73509 0.0269931 7.61717 0.0758994Z"/>
</svg>